<svg xmlns="http://www.w3.org/2000/svg" width="26.877" height="20.806"><path d="M22.767 1.742A21.89 21.89 0 0 0 17.223 0a16.273 16.273 0 0 0-.71 1.475 20.36 20.36 0 0 0-6.146 0A15.764 15.764 0 0 0 9.648 0C7.701.337 5.838.93 4.1 1.747.589 7.05-.361 12.22.114 17.319c2.328 1.738 4.583 2.794 6.8 3.484a16.917 16.917 0 0 0 1.457-2.398 14.318 14.318 0 0 1-2.293-1.117c.192-.142.38-.291.562-.445 4.422 2.069 9.227 2.069 13.597 0 .184.154.372.303.562.445a14.28 14.28 0 0 1-2.297 1.119c.42.842.906 1.645 1.456 2.399 2.22-.691 4.477-1.747 6.805-3.487.558-5.91-.953-11.034-3.996-15.577ZM8.974 14.183c-1.328 0-2.416-1.239-2.416-2.748 0-1.51 1.065-2.75 2.416-2.75 1.35 0 2.44 1.238 2.416 2.75.002 1.51-1.065 2.748-2.416 2.748Zm8.93 0c-1.328 0-2.417-1.239-2.417-2.748 0-1.51 1.065-2.75 2.416-2.75s2.44 1.238 2.417 2.75c0 1.51-1.066 2.748-2.417 2.748Z" fill="#fff" fill-rule="evenodd" data-name="Path 30"/></svg>