<svg xmlns="http://www.w3.org/2000/svg" width="27.939" height="22.692" viewBox="12.41 14.65 27.939 22.692"><path d="M37.477 20.305c.018.248.018.497.018.745 0 7.57-5.762 16.292-16.292 16.292-3.244 0-6.258-.94-8.793-2.57.46.052.904.07 1.383.07 2.676 0 5.14-.904 7.108-2.446a5.736 5.736 0 0 1-5.353-3.971c.354.053.709.088 1.081.088.514 0 1.028-.07 1.507-.195a5.727 5.727 0 0 1-4.592-5.62v-.07a5.767 5.767 0 0 0 2.589.726 5.722 5.722 0 0 1-2.553-4.768c0-1.064.283-2.04.78-2.89a16.276 16.276 0 0 0 11.807 5.992 6.464 6.464 0 0 1-.142-1.312 5.724 5.724 0 0 1 5.726-5.726c1.649 0 3.138.691 4.184 1.808a11.274 11.274 0 0 0 3.634-1.382 5.71 5.71 0 0 1-2.517 3.155 11.48 11.48 0 0 0 3.297-.886 12.309 12.309 0 0 1-2.872 2.96Z" fill="#fff" fill-rule="evenodd" data-name="Icon awesome-twitter"/></svg>